HIERARCHY
ROOT Hips
{
	OFFSET	0.00	0.00	0.00
	CHANNELS 6 Xposition Yposition Zposition Zrotation Xrotation Yrotation
	JOINT LeftUpLeg
	{
		OFFSET	 0.126116	-0.014019	-0.065224
		CHANNELS 3 Zrotation Xrotation Yrotation
		JOINT LeftLeg
		{
			OFFSET	 0.000000	 0.000000	 0.569914
			CHANNELS 3 Zrotation Xrotation Yrotation
			JOINT LeftFoot
			{
				OFFSET	 0.000000	 0.000000	 0.544423
				CHANNELS 3 Zrotation Xrotation Yrotation
				JOINT LeftToeBase
				{
					OFFSET	 0.000000	 0.000000	 0.207117
					CHANNELS 3 Zrotation Xrotation Yrotation
					End Site
					{
						OFFSET	 0.000000	 0.000000	 0.207117
					}
				}
			}
		}
	}
	JOINT RightUpLeg
	{
		OFFSET	-0.124023	-0.008373	-0.065224
		CHANNELS 3 Zrotation Xrotation Yrotation
		JOINT RightLeg
		{
			OFFSET	 0.000000	 0.000000	 0.570047
			CHANNELS 3 Zrotation Xrotation Yrotation
			JOINT RightFoot
			{
				OFFSET	 0.000000	 0.000000	 0.544354
				CHANNELS 3 Zrotation Xrotation Yrotation
				JOINT RightToeBase
				{
					OFFSET	 0.000000	 0.000000	 0.207540
					CHANNELS 3 Zrotation Xrotation Yrotation
					End Site
					{
						OFFSET	 0.000000	 0.000000	 0.207540
					}
				}
			}
		}
	}
	JOINT Spine
	{
		OFFSET	 0.000184	-0.007763	 0.117403
		CHANNELS 3 Zrotation Xrotation Yrotation
		JOINT Spine1
		{
			OFFSET	 0.000000	 0.000000	 0.137269
			CHANNELS 3 Zrotation Xrotation Yrotation
			JOINT Spine2
			{
				OFFSET	 0.000000	 0.000000	 0.156879
				CHANNELS 3 Zrotation Xrotation Yrotation
				JOINT LeftShoulder
				{
					OFFSET	 0.080501	-0.002496	 0.160144
					CHANNELS 3 Zrotation Xrotation Yrotation
					JOINT LeftArm
					{
						OFFSET	 0.000000	 0.000000	 0.164363
						CHANNELS 3 Zrotation Xrotation Yrotation
						JOINT LeftForeArm
						{
							OFFSET	 0.000000	 0.000000	 0.364576
							CHANNELS 3 Zrotation Xrotation Yrotation
							JOINT LeftHand
							{
								OFFSET	 0.000000	 0.000000	 0.360812
								CHANNELS 3 Zrotation Xrotation Yrotation
								JOINT LeftHandIndex1
								{
									OFFSET	 0.000000	 0.000000	 0.086006
									CHANNELS 3 Zrotation Xrotation Yrotation
									JOINT LeftHandIndex2
									{
										OFFSET	 0.000000	 0.000000	 0.047236
										CHANNELS 3 Zrotation Xrotation Yrotation
										JOINT LeftHandIndex3
										{
											OFFSET	-0.004284	-0.000551	 0.038166
											CHANNELS 3 Zrotation Xrotation Yrotation
											End Site
											{
												OFFSET	-0.004284	-0.000551	 0.038166
											}
										}
									}
								}
							}
						}
					}
				}
				JOINT Neck
				{
					OFFSET	 0.000000	 0.000000	 0.176489
					CHANNELS 3 Zrotation Xrotation Yrotation
					JOINT Head
					{
						OFFSET	 0.000000	-0.001747	 0.077940
						CHANNELS 3 Zrotation Xrotation Yrotation
						End Site
						{
							OFFSET	 0.000000	-0.001747	 0.077940
						}
					}
				}
				JOINT RightShoulder
				{
					OFFSET	-0.080363	 0.000306	 0.159706
					CHANNELS 3 Zrotation Xrotation Yrotation
					JOINT RightArm
					{
						OFFSET	 0.000000	 0.000000	 0.164196
						CHANNELS 3 Zrotation Xrotation Yrotation
						JOINT RightForeArm
						{
							OFFSET	 0.000000	 0.000000	 0.365611
							CHANNELS 3 Zrotation Xrotation Yrotation
							JOINT RightHand
							{
								OFFSET	 0.000000	 0.000000	 0.360648
								CHANNELS 3 Zrotation Xrotation Yrotation
								JOINT RightHandIndex1
								{
									OFFSET	 0.000000	 0.000000	 0.069977
									CHANNELS 3 Zrotation Xrotation Yrotation
									JOINT RightHandIndex2
									{
										OFFSET	 0.000000	 0.000000	 0.052305
										CHANNELS 3 Zrotation Xrotation Yrotation
										JOINT RightHandIndex3
										{
											OFFSET	 0.009002	-0.000782	 0.042196
											CHANNELS 3 Zrotation Xrotation Yrotation
											End Site
											{
												OFFSET	 0.009002	-0.000782	 0.042196
											}
										}
									}
								}
							}
						}
					}
				}
			}
		}
	}
}
MOTION
Frames:    7
Frame Time: 0.03333334
 0.010560	 0.032800	 1.197029	 4.702652	-1.569168	-3.695230	 18.810960	-9.410278	-175.874300	 0.708368	-39.752110	 0.227430	 70.673120	 83.573580	-74.204350	-2.370289	 31.465580	-0.066541	-23.810960	-33.573900	-175.943200	 10.179050	-50.247330	 8.450311	 1.993243	 71.749210	 4.746631	 2.358459	 33.075450	 0.104976	-3.693673	 8.852492	 0.802339	 1.846934	 3.514688	 3.353542	-9.504944	-2.748259	-4.371456	-93.880590	 58.910440	 175.518200	 9.893960	 26.081760	-43.839350	-3.955844	 0.042352	-1.743236	 0.185330	-7.387302	-6.942215	-4.870460	 19.227470	-2.788300	-3.881868	 21.468370	 2.203105	-4.807002	 5.560337	 0.146099	-0.093804	-5.053769	 0.175006	-11.450690	 1.653542	 2.041811	 89.798260	 61.623970	-179.961500	-19.028200	 50.272640	 8.203342	 1.450177	-1.597121	 13.139130	-4.403337	 7.033169	 0.579334	 6.296967	 25.219940	-0.553692	 1.835733	 45.099790	-6.948704	 0.473060	 24.509140	 3.595326
 0.009858	 0.016981	 1.194917	 4.944514	-1.453793	-3.692051	 18.729960	-8.821159	-176.248400	 0.878168	-39.866340	 0.336815	 77.128910	 84.101390	-80.723070	-2.369876	 31.535660	-0.068126	-24.824870	-34.609820	-176.768200	 10.013900	-48.345680	 8.090352	 0.031863	 71.572070	 6.857035	 2.358705	 33.039430	 0.104140	-5.767833	 8.812413	 0.781911	 1.791564	 3.558972	 3.328134	-9.540268	-2.768572	-4.348157	-93.925440	 58.936200	 175.419600	 9.271505	 25.049990	-43.979080	-5.173942	 0.104473	-2.166730	 0.097861	-7.393100	-7.360302	-4.870265	 19.236760	-2.789821	-3.879915	 21.493420	 2.201120	-4.806550	 5.565639	 0.145790	-0.080444	-5.069710	 0.181828	-11.439230	 1.675512	 1.988904	 89.784260	 61.641470	-179.995000	-19.021720	 50.704030	 7.276963	 2.344012	-1.424853	 14.128570	-4.212715	 7.205487	 0.501519	 6.294006	 24.902090	-0.544056	 1.879001	 44.753140	-6.987317	 0.522744	 24.291650	 3.570057
 0.008043	-0.022440	 1.189518	 5.447808	-1.079143	-3.705514	 18.567310	-7.303912	-177.156000	 1.143819	-39.884650	 0.507302	 95.688000	 85.029490	-99.314100	-2.369011	 31.680070	-0.071400	-27.266930	-36.452580	-178.995800	 9.636482	-42.489660	 7.063039	-5.246768	 70.110890	 12.453170	 2.358956	 33.002180	 0.103274	-10.307760	 8.609973	 0.726655	 1.641313	 3.695698	 3.301579	-9.620304	-2.841303	-4.318399	-94.038800	 58.969450	 175.173700	 7.716001	 22.638030	-44.259760	-7.692217	 0.295287	-3.110002	 0.033717	-7.467597	-8.001459	-4.867399	 19.313810	-2.795599	-3.873967	 21.569390	 2.195069	-4.805206	 5.581512	 0.144864	-0.053773	-5.094171	 0.210093	-11.427250	 1.728350	 1.904585	 89.742850	 61.709850	 179.906100	-18.947970	 51.680190	 5.480645	 4.162438	-0.875546	 15.401140	-3.876127	 7.599164	 0.287327	 6.284075	 24.103170	-0.543895	 1.977883	 43.942830	-7.075288	 0.680518	 23.595450	 3.490843
 0.005951	-0.061642	 1.183251	 5.920514	-0.649013	-3.729209	 18.422250	-5.790023	-178.074400	 1.340411	-39.752240	 0.631640	 117.821900	 85.390320	-121.423700	-2.368187	 31.814360	-0.074451	-29.674470	-37.390690	 178.650900	 9.337799	-35.789050	 5.944458	-9.955310	 68.912520	 17.159030	 2.359042	 32.989630	 0.102982	-14.538110	 8.349081	 0.660392	 1.482306	 3.762645	 3.303650	-9.692255	-2.886725	-4.299064	-94.156800	 58.988680	 174.919400	 6.282262	 20.521210	-44.447340	-9.975288	 0.545177	-3.998549	 0.031923	-7.569373	-8.468010	-4.863237	 19.419990	-2.802564	-3.867289	 21.654540	 2.188288	-4.803704	 5.599190	 0.143824	-0.029490	-5.111859	 0.244857	-11.418930	 1.782440	 1.841135	 89.697070	 61.792790	 179.796200	-18.766440	 52.480660	 4.251709	 5.788736	-0.215667	 15.476740	-3.598994	 7.985680	 0.052972	 6.272381	 23.274440	-0.555544	 2.073776	 43.132070	-7.160187	 0.858461	 22.799910	 3.403404
 0.003846	-0.096488	 1.176008	 6.221608	-0.235277	-3.866426	 18.505450	-4.439756	-178.836100	 1.477997	-39.677830	 0.718514	 138.813000	 85.115610	-142.360400	-2.367023	 32.003560	-0.078756	-31.427040	-38.392770	 176.687900	 9.367734	-30.957160	 5.248795	-13.084850	 68.219230	 19.975500	 2.359962	 32.853490	 0.099826	-18.353680	 8.052518	 0.710109	 1.352791	 3.802952	 3.309633	-9.736881	-2.887620	-4.280155	-94.260120	 58.991030	 174.698800	 5.167716	 18.979310	-44.572010	-12.367030	 0.848964	-4.838857	-0.234880	-7.793201	-8.451801	-4.855965	 19.589120	-2.810250	-3.858854	 21.761870	 2.179709	-4.799617	 5.647346	 0.141004	-0.015498	-5.142671	 0.278267	-11.419570	 1.832468	 1.818696	 89.634560	 61.872980	 179.645400	-18.459870	 53.008210	 3.485430	 7.158209	 0.411152	 15.102900	-3.440457	 8.391368	-0.414828	 6.257323	 22.347250	-0.582636	 2.163431	 42.350960	-7.239202	 1.066123	 21.857790	 3.303966
 0.001541	-0.128753	 1.167148	 6.448170	 0.175109	-4.063986	 18.684770	-3.220841	-179.549700	 1.593549	-39.797590	 0.794309	 156.192400	 84.265610	-159.675900	-2.365660	 32.221630	-0.083743	-32.962070	-40.577860	 174.709700	 9.697206	-28.832670	 5.085345	-15.822310	 68.463220	 22.352720	 2.361259	 32.657620	 0.095297	-21.883270	 7.736208	 0.817280	 1.247689	 3.860573	 3.322551	-9.767149	-2.881192	-4.264513	-94.358600	 58.985660	 174.489800	 4.218624	 17.765790	-44.735870	-14.808310	 1.206885	-5.649380	-0.631199	-8.081088	-8.211160	-4.847067	 19.790480	-2.818432	-3.849416	 21.881440	 2.170129	-4.794257	 5.710447	 0.137302	-0.006013	-5.180104	 0.311664	-11.420820	 1.881835	 1.814868	 89.563420	 61.953360	 179.472800	-18.082810	 53.412030	 2.682570	 8.397938	 1.002588	 15.040210	-3.330178	 8.807626	-1.003196	 6.240038	 21.357690	-0.617366	 2.250598	 41.569430	-7.315649	 1.288983	 20.830470	 3.200465
-0.000936	-0.159605	 1.157535	 6.559387	 0.423294	-4.242504	 18.911590	-1.871074	 179.662500	 1.672691	-39.878740	 0.846403	 168.653500	 83.304170	-172.014500	-2.362681	 32.683960	-0.094351	-33.915350	-43.300120	 172.958200	 9.822074	-28.640230	 5.143608	-19.970060	 71.682400	 26.051480	 2.358090	 33.130020	 0.106245	-25.043240	 7.480647	 0.941420	 1.162026	 4.045750	 3.276243	-9.758488	-2.889165	-4.214389	-94.420540	 58.975280	 174.359500	 3.299010	 16.873200	-44.939460	-17.050060	 1.595968	-6.393392	-1.137664	-8.147695	-7.981687	-4.836926	 19.997400	-2.821484	-3.837972	 22.025980	 2.158505	-4.783949	 5.831633	 0.130174	 0.007367	-5.226004	 0.329754	-11.391160	 1.920262	 1.791422	 89.504220	 62.004460	 179.328800	-17.559330	 53.706830	 1.789368	 9.471981	 1.562569	 15.187430	-3.168348	 9.090680	-1.767918	 6.219658	 20.263780	-0.660192	 2.381919	 40.348910	-7.430107	 1.523158	 19.733010	 3.095386
